<?xml version="1.0" encoding="UTF-8"?>
<svg version="1.1" xmlns="http://www.w3.org/2000/svg" width="56" height="56">
<path d="M0 0 C1.22244667 0.00333092 1.22244667 0.00333092 2.46958923 0.00672913 C3.85090782 0.00684242 3.85090782 0.00684242 5.26013184 0.00695801 C6.2611644 0.01211929 7.26219696 0.01728058 8.29356384 0.02259827 C9.31316696 0.02401321 10.33277008 0.02542816 11.38327026 0.02688599 C14.65417867 0.03250355 17.92501972 0.04505902 21.19590759 0.05775452 C23.40749515 0.06276725 25.61908377 0.06733055 27.83067322 0.07142639 C33.26496511 0.08162972 38.69911057 0.10120166 44.13340759 0.12025452 C44.13340759 14.97025452 44.13340759 29.82025452 44.13340759 45.12025452 C41.65840759 45.61525452 41.65840759 45.61525452 39.13340759 46.12025452 C37.18242674 44.16927366 37.87925651 40.47350523 37.81700134 37.80384827 C37.79622025 37.07279373 37.77543915 36.3417392 37.75402832 35.58853149 C37.68845735 33.24503796 37.62961328 30.90142913 37.57090759 28.55775452 C37.52772951 26.97245597 37.48411546 25.38716922 37.44004822 23.80189514 C37.3327684 19.90813414 37.2315227 16.0142568 37.13340759 12.12025452 C31.64891437 17.57935976 26.16837148 23.04240772 20.6905365 28.50819397 C18.8271833 30.36652334 16.9629329 32.22395356 15.09776306 34.08045959 C12.41456112 36.75151065 9.73461891 39.4257953 7.05528259 42.10072327 C6.22285034 42.92799423 5.39041809 43.7552652 4.53276062 44.60760498 C1.43506963 47.7049962 -1.53812456 50.69556916 -4.22108459 54.16444397 C-5.86659241 56.12025452 -5.86659241 56.12025452 -9.11659241 56.43275452 C-10.02409241 56.32962952 -10.93159241 56.22650452 -11.86659241 56.12025452 C-12.29237366 53.53822327 -12.29237366 53.53822327 -11.86659241 50.12025452 C-9.93963614 47.52580645 -7.49498672 45.53475195 -5.05409241 43.43275452 C-3.51318216 42.04837091 -1.97708852 40.65861544 -0.44471741 39.26478577 C0.85755798 38.08070129 0.85755798 38.08070129 2.18614197 36.87269592 C8.20302119 31.31160176 13.92066156 25.42953018 19.69590759 19.62025452 C20.9279647 18.38356206 22.16014013 17.14698748 23.3924408 15.91053772 C26.30918605 12.98348857 29.2211521 10.05179646 32.13340759 7.12025452 C20.91340759 6.79025452 9.69340759 6.46025452 -1.86659241 6.12025452 C-2.19659241 4.47025452 -2.52659241 2.82025452 -2.86659241 1.12025452 C-1.86659241 0.12025452 -1.86659241 0.12025452 0 0 Z " fill="#3A96DB" transform="translate(11.866592407226563,-0.1202545166015625)"/>
</svg>
