<svg width="26" height="26" viewBox="0 0 26 26" fill="none" xmlns="http://www.w3.org/2000/svg">
<path fill-rule="evenodd" clip-rule="evenodd" d="M12.9999 0C5.82119 0 0 5.8199 0 12.9999C0 18.7438 3.72487 23.6165 8.89012 25.3357C9.5396 25.4562 9.77812 25.0537 9.77812 24.7103C9.77812 24.4003 9.76606 23.3763 9.76047 22.29C6.14389 23.0764 5.38074 20.7562 5.38074 20.7562C4.78939 19.2536 3.93734 18.854 3.93734 18.854C2.75764 18.0472 4.02625 18.064 4.02625 18.064C5.33145 18.1555 6.01903 19.4036 6.01903 19.4036C7.17849 21.3906 9.06019 20.8162 9.80202 20.4843C9.91869 19.6441 10.2556 19.0704 10.6274 18.7457C7.73992 18.4174 4.70436 17.3025 4.70436 12.3214C4.70436 10.9021 5.2124 9.74238 6.044 8.83178C5.90881 8.50457 5.46384 7.18236 6.16972 5.39172C6.16972 5.39172 7.26115 5.04233 9.7454 6.72426C10.7826 6.43601 11.8949 6.29113 12.9999 6.28618C14.1042 6.29113 15.2172 6.43558 16.2563 6.72383C18.7376 5.0419 19.8277 5.39129 19.8277 5.39129C20.5353 7.18172 20.0903 8.50414 19.9554 8.83135C20.7889 9.74195 21.2933 10.9016 21.2933 12.3209C21.2933 17.314 18.2521 18.4131 15.3573 18.7352C15.8238 19.1386 16.2393 19.93 16.2393 21.1426C16.2393 22.882 16.2242 24.2819 16.2242 24.7101C16.2242 25.056 16.4585 25.4614 17.1172 25.3337C22.2794 23.6128 26 18.7416 26 12.9999C25.9998 5.82033 20.1792 0 12.9999 0Z" fill="#E2E4E9"/>
<path d="M4.92372 18.6648C4.89509 18.7294 4.79348 18.7488 4.70091 18.7046C4.60619 18.6624 4.55345 18.5744 4.58402 18.5096C4.612 18.4429 4.71383 18.4246 4.8079 18.4691C4.90262 18.5115 4.95666 18.6002 4.92372 18.6648ZM5.45028 19.2523C5.38849 19.3098 5.26729 19.2831 5.18506 19.192C5.09981 19.1016 5.08388 18.9804 5.14696 18.922C5.21111 18.8648 5.32865 18.8919 5.4139 18.9823C5.49871 19.074 5.51529 19.1939 5.45028 19.2523ZM5.96306 20.0008C5.8834 20.0563 5.75295 20.0044 5.67244 19.8888C5.59279 19.773 5.59279 19.6342 5.67459 19.5788C5.75489 19.5233 5.88341 19.5735 5.96521 19.688C6.04443 19.8053 6.04443 19.9444 5.96306 20.0008ZM6.66506 20.7243C6.59402 20.8029 6.44204 20.7818 6.33096 20.6748C6.21751 20.57 6.18586 20.4208 6.25712 20.3424C6.32945 20.2636 6.48208 20.2856 6.59381 20.3919C6.70725 20.4966 6.74105 20.6462 6.66506 20.7243ZM7.63379 21.1443C7.60214 21.2461 7.45619 21.2924 7.30873 21.2489C7.1617 21.2044 7.06547 21.0853 7.09561 20.9824C7.12574 20.8797 7.27278 20.8317 7.4211 20.878C7.56813 20.9224 7.66436 21.0408 7.63379 21.1443ZM8.69788 21.222C8.70154 21.3292 8.57668 21.4179 8.42233 21.4201C8.26669 21.4237 8.14076 21.3368 8.13925 21.2313C8.13925 21.123 8.26152 21.0354 8.41695 21.0324C8.5713 21.0296 8.69788 21.1159 8.69788 21.222ZM9.68771 21.0537C9.70622 21.1581 9.5988 21.2655 9.44531 21.2941C9.29462 21.3221 9.15469 21.2571 9.13532 21.1536C9.1168 21.0464 9.22616 20.9389 9.37685 20.9112C9.53056 20.8847 9.66833 20.9475 9.68771 21.0537Z" fill="#E2E4E9"/>
</svg>
