<svg width="26" height="23" viewBox="0 0 26 23" fill="none" xmlns="http://www.w3.org/2000/svg">
<path d="M13.7479 20.679C13.5168 20.4746 13.2757 20.2696 13.0453 20.0425C12.8612 20.2126 12.6887 20.3721 12.5061 20.5309C10.2266 22.4959 7.87697 23.314 6.48415 22.5187C5.13679 21.7576 4.71232 19.5092 5.25157 16.6806C5.30909 16.3739 5.37817 16.0673 5.4588 15.7607C5.2169 15.6895 4.98657 15.624 4.75623 15.5471C1.88816 14.5681 0 12.9783 0 11.3878C0 9.85492 1.76182 8.3669 4.51356 7.41287C4.82171 7.31034 5.1468 7.20853 5.48114 7.1174C5.4041 6.82193 5.34324 6.53786 5.28547 6.26304C4.70924 3.39167 5.11213 1.09771 6.47106 0.325222C7.88699 -0.49283 10.2366 0.38218 12.5962 2.43763C12.7341 2.56223 12.8728 2.69892 13.0222 2.83491C13.241 2.63057 13.4482 2.42624 13.667 2.24469C15.9011 0.322374 18.1228 -0.481438 19.4817 0.291047C20.8977 1.0856 21.3129 3.53905 20.6797 6.57203C20.645 6.76569 20.6026 6.94724 20.5533 7.14161C20.8414 7.22135 21.1288 7.31177 21.3938 7.4029C24.2033 8.35693 26.0229 9.84495 25.9998 11.412C25.9998 13.0132 24.0538 14.5924 21.0695 15.5692C20.9084 15.6147 20.7474 15.6717 20.5857 15.7165C20.655 15.9437 20.7004 16.1708 20.7467 16.3979C21.3452 19.3398 20.8846 21.7476 19.4917 22.5429C19.126 22.7464 18.7053 22.8501 18.2784 22.8419C17.0019 22.8398 15.3811 22.063 13.7479 20.679ZM16.0051 16.5104C15.3437 17.4613 14.6167 18.3719 13.8288 19.2365C14.0476 19.4501 14.2664 19.6459 14.4852 19.8275C16.3849 21.4401 18.1351 22.0424 18.9533 21.5768C19.2031 21.3779 19.4073 21.1347 19.5536 20.8616C19.6999 20.5886 19.7855 20.2911 19.8053 19.9869C19.9715 18.8598 19.9246 17.7145 19.6666 16.6022C19.632 16.3979 19.5896 16.1936 19.5287 15.9778C18.3686 16.2288 17.1913 16.4067 16.0051 16.5104ZM6.3555 16.8742C5.88404 19.2949 6.22916 21.099 7.04883 21.5654C7.33922 21.6775 7.65275 21.7293 7.96721 21.717C8.28166 21.7047 8.58933 21.6286 8.86843 21.4942C9.9542 21.0724 10.943 20.4633 11.7819 19.6993C11.9545 19.5626 12.1155 19.4038 12.2888 19.2451C11.4836 18.3802 10.7374 17.4697 10.0548 16.5189C8.87308 16.4277 7.69959 16.2612 6.5427 16.0206C6.47106 16.3175 6.41328 16.6008 6.3555 16.8742ZM13.0577 18.464C13.5646 17.9073 14.0707 17.2943 14.5776 16.6129C14.0707 16.6357 13.5415 16.6471 13.0114 16.6471C12.4814 16.6471 11.9869 16.6357 11.4915 16.6129C12.0092 17.2822 12.5284 17.9073 13.0577 18.464ZM10.6387 7.37869C10.2012 8.00309 9.77515 8.66023 9.37225 9.35511C8.96935 10.0365 8.60188 10.7292 8.26678 11.4198C8.61267 12.1012 8.9809 12.7939 9.3838 13.4988C9.7867 14.1801 10.2127 14.8515 10.6503 15.4859C11.4099 15.5314 12.2049 15.5571 13.0107 15.5571C13.8165 15.5571 14.6223 15.5343 15.3942 15.478C15.8086 14.8536 16.2346 14.183 16.6383 13.4902C17.042 12.7975 17.421 12.0933 17.7553 11.412C17.421 10.742 17.0412 10.0493 16.6383 9.35583C16.2354 8.66237 15.8094 8.00309 15.3834 7.3794C14.613 7.32244 13.8172 7.28827 13.0114 7.28827C12.2056 7.28827 11.4106 7.32173 10.6387 7.37869ZM6.83929 14.9768C7.62934 15.1436 8.42897 15.2689 9.23435 15.352C8.95779 14.9206 8.682 14.4884 8.417 14.0342C8.16355 13.5913 7.9101 13.1485 7.67976 12.7056C7.34619 13.4774 7.06963 14.2399 6.83929 14.9768ZM17.6051 14.0228C17.3401 14.477 17.0751 14.9085 16.8109 15.3292C17.6283 15.2346 18.4395 15.0982 19.2406 14.9206C18.9905 14.1539 18.6984 13.3994 18.3655 12.6601C18.1236 13.1143 17.8701 13.5685 17.6051 14.0228ZM4.87024 8.45732C2.5214 9.27537 1.10547 10.4665 1.10547 11.3992C1.15025 11.6992 1.25871 11.9882 1.42462 12.2494C1.59053 12.5106 1.81063 12.739 2.07228 12.9214C2.97097 13.6198 4.00155 14.1588 5.11214 14.5112C5.31936 14.5824 5.53815 14.6365 5.75693 14.7048C6.11063 13.5876 6.53743 12.4913 7.03496 11.422C6.53647 10.3709 6.1134 9.29064 5.76849 8.1882C5.45777 8.26509 5.15836 8.3548 4.87024 8.45732ZM18.9987 11.3992C19.5097 12.455 19.9471 13.5398 20.3083 14.6472C20.4586 14.6016 20.608 14.556 20.7459 14.5105C23.3135 13.6704 24.9059 12.3867 24.9143 11.3871C24.9143 10.4558 23.4406 9.25117 21.034 8.43383C20.7921 8.3548 20.5279 8.27506 20.2637 8.19532C19.9148 9.28663 19.4923 10.3567 18.9987 11.3992ZM17.5943 8.78696C17.8593 9.2412 18.1128 9.68476 18.3424 10.1276C18.6623 9.40385 18.939 8.66443 19.1713 7.91267C18.3892 7.73704 17.5974 7.60062 16.7993 7.504C17.0759 7.92335 17.3409 8.34412 17.5943 8.78696ZM6.85085 7.90341C7.08196 8.63033 7.35775 9.36864 7.67976 10.129C7.91087 9.68618 8.16355 9.24333 8.417 8.80049C8.67045 8.35765 8.93468 7.92619 9.21124 7.50542C8.38233 7.60581 7.59964 7.74179 6.85085 7.90341ZM14.3927 3.07627C14.197 3.24643 14.0014 3.42798 13.8049 3.61024C14.6045 4.46424 15.3394 5.36821 16.0043 6.31572C17.1761 6.42026 18.3382 6.60252 19.4817 6.86109C19.528 6.69093 19.5588 6.52006 19.5973 6.3499C20.1365 3.73769 19.8045 1.73848 18.9294 1.23939C18.7373 1.13974 18.5194 1.0905 18.2992 1.097C17.3586 1.09272 15.9149 1.76981 14.3927 3.07413V3.07627ZM7.02341 1.26787C6.20605 1.73349 5.88327 3.596 6.36706 6.04945C6.42484 6.31074 6.48261 6.57132 6.55117 6.844C7.69622 6.59494 8.85793 6.41656 10.0286 6.31003C10.6959 5.36133 11.4347 4.45726 12.2395 3.60455C12.1132 3.47924 11.9745 3.36604 11.8482 3.25212C10.2458 1.85168 8.70511 1.11266 7.69902 1.11266C7.46257 1.1052 7.22856 1.15896 7.02341 1.26787ZM14.5537 6.21961C14.0789 5.58462 13.5666 4.97425 13.0192 4.39127C12.5015 4.94732 11.983 5.56104 11.4784 6.21961C11.9853 6.19682 12.4915 6.18543 13.0099 6.18543C13.5284 6.18543 14.0468 6.19469 14.5537 6.21961ZM10.7081 11.4447C10.6973 11.1528 10.7489 10.8618 10.86 10.5884C10.9711 10.3149 11.1396 10.0645 11.3556 9.8513C11.5717 9.63813 11.8311 9.46646 12.1191 9.34613C12.4071 9.2258 12.7179 9.15917 13.0338 9.15007C13.6712 9.17014 14.2739 9.42296 14.7099 9.85311C15.1458 10.2833 15.3795 10.8556 15.3595 11.4447C15.3801 12.0343 15.1466 12.6074 14.7104 13.038C14.2742 13.4686 13.6709 13.7217 13.033 13.7416C12.717 13.7325 12.406 13.6658 12.1179 13.5453C11.8298 13.4248 11.5703 13.2529 11.3543 13.0395C11.1382 12.8261 10.9699 12.5754 10.8591 12.3017C10.7482 12.028 10.6968 11.7368 10.7081 11.4447Z" fill="#E2E4E9"/>
</svg>
